<svg preserveAspectRatio="none" width="100%" height="100%" overflow="visible" style="display: block;" viewBox="0 0 973 182" fill="none" xmlns="http://www.w3.org/2000/svg">
<g id="Chart Line">
<path d="M0 1.72791C13.8974 1.72791 13.8974 28.0751 27.7948 28.0751C41.6922 28.0751 41.1131 17.0187 55.5895 17.0187C70.066 17.0187 68.9079 49.4822 83.3843 49.4822C97.8608 49.4822 95.5445 36.4497 111.179 36.4497C126.814 36.4497 122.76 68.1134 138.974 68.1134C155.187 68.1134 152.871 21.4883 166.769 21.4883C180.666 21.4883 179.508 55.5044 194.563 55.5044C209.619 55.5044 207.303 46.1888 222.358 46.1888C237.414 46.1888 235.097 69.4778 250.153 69.4778C265.208 69.4778 263.471 80.7695 277.948 80.7695C292.424 80.7695 291.266 55.3632 305.742 55.3632C320.219 55.3632 318.482 82.0868 333.537 82.0868C348.593 82.0868 345.118 65.9492 361.332 65.9492C377.546 65.9492 374.65 47.9766 389.127 47.9766C403.603 47.9766 401.866 89.0029 416.922 89.0029C431.977 89.0029 429.661 30.4275 444.716 30.4275C459.772 30.4275 458.035 65.4316 472.511 65.4316C486.988 65.4316 484.092 86.3682 500.306 86.3682C516.519 86.3682 512.466 73.6651 528.101 73.6651C543.735 73.6651 539.682 99.5418 555.895 99.5418C572.109 99.5418 568.056 89.5675 583.69 89.5675C599.325 89.5675 596.429 74.465 611.485 74.465C626.54 74.465 624.224 128.712 639.28 128.712C654.335 128.712 650.861 115.444 667.074 115.444C683.288 115.444 680.972 136.193 694.869 136.193C708.767 136.193 707.03 121.372 722.664 121.372C738.299 121.372 735.982 164.187 750.459 164.187C764.935 164.187 762.04 151.295 778.254 151.295C794.467 151.295 790.414 141.933 806.048 141.933C821.683 141.933 818.788 170.632 833.843 170.632C848.899 170.632 845.424 176.654 861.638 176.654C877.852 176.654 873.219 160.799 889.433 160.799C905.646 160.799 903.33 152.33 917.227 152.33C931.125 152.33 931.125 179.854 945.022 179.854C958.92 179.854 957.761 170.162 972.817 170.162" stroke="var(--stroke-0, #1CBE87)" stroke-width="3.45582"/>
<path d="M0 1.72791C13.8974 1.72791 13.8974 28.0751 27.7948 28.0751C41.6922 28.0751 41.1131 17.0187 55.5895 17.0187C70.066 17.0187 68.9079 49.4822 83.3843 49.4822C97.8608 49.4822 95.5445 36.4497 111.179 36.4497C126.814 36.4497 122.76 68.1134 138.974 68.1134C155.187 68.1134 152.871 21.4883 166.769 21.4883C180.666 21.4883 179.508 55.5044 194.563 55.5044C209.619 55.5044 207.303 46.1888 222.358 46.1888C237.414 46.1888 235.097 69.4778 250.153 69.4778C265.208 69.4778 263.471 80.7695 277.948 80.7695C292.424 80.7695 291.266 55.3632 305.742 55.3632C320.219 55.3632 318.482 82.0868 333.537 82.0868C348.593 82.0868 345.118 65.9492 361.332 65.9492C377.546 65.9492 374.65 47.9766 389.127 47.9766C403.603 47.9766 401.866 89.0029 416.922 89.0029C431.977 89.0029 429.661 30.4275 444.716 30.4275C459.772 30.4275 458.035 65.4316 472.511 65.4316C486.988 65.4316 484.092 86.3682 500.306 86.3682C516.519 86.3682 512.466 73.6651 528.101 73.6651C543.735 73.6651 539.682 99.5418 555.895 99.5418C572.109 99.5418 568.056 89.5675 583.69 89.5675C599.325 89.5675 596.429 74.465 611.485 74.465C626.54 74.465 624.224 128.712 639.28 128.712C654.335 128.712 650.861 115.444 667.074 115.444C683.288 115.444 680.972 136.193 694.869 136.193C708.767 136.193 707.03 121.372 722.664 121.372C738.299 121.372 735.982 164.187 750.459 164.187C764.935 164.187 762.04 151.295 778.254 151.295C794.467 151.295 790.414 141.933 806.048 141.933C821.683 141.933 818.788 170.632 833.843 170.632C848.899 170.632 845.424 176.654 861.638 176.654C877.852 176.654 873.219 160.799 889.433 160.799C905.646 160.799 903.33 152.33 917.227 152.33C931.125 152.33 931.125 179.854 945.022 179.854C958.92 179.854 957.761 170.162 972.817 170.162" stroke="url(#paint0_linear_392_184)" stroke-opacity="0.5" stroke-width="3.45582"/>
</g>
<defs>
<linearGradient id="paint0_linear_392_184" x1="0" y1="90.7908" x2="972.817" y2="90.7908" gradientUnits="userSpaceOnUse">
<stop stop-color="white" stop-opacity="0"/>
<stop offset="0.5" stop-color="white" stop-opacity="0.5"/>
<stop offset="1" stop-color="white" stop-opacity="0"/>
</linearGradient>
</defs>
</svg>
