<svg preserveAspectRatio="none" width="100%" height="100%" overflow="visible" style="display: block;" viewBox="0 0 20 22" fill="none" xmlns="http://www.w3.org/2000/svg">
<g id="Group">
<path id="Vector" d="M13.8593 0.75596V4.78775M5.7957 0.75596V4.78775M0.755961 8.81954H18.899M10.8354 2.77185H8.81954C5.01857 2.77185 3.11758 2.77185 1.93728 3.95317C0.756969 5.13448 0.755961 7.03446 0.755961 10.8354V12.8513C0.755961 16.6523 0.755961 18.5533 1.93728 19.7336C3.11859 20.9139 5.01857 20.9149 8.81954 20.9149H10.8354C14.6364 20.9149 16.5374 20.9149 17.7177 19.7336C18.898 18.5523 18.899 16.6523 18.899 12.8513V10.8354C18.899 7.03446 18.899 5.13348 17.7177 3.95317C16.5364 2.77286 14.6364 2.77185 10.8354 2.77185Z" stroke="var(--stroke-0, white)" stroke-width="1.51192" stroke-linecap="round" stroke-linejoin="round"/>
<path id="Vector_2" d="M9.82397 12.8507H9.83203M9.82397 16.8825H9.83203M13.8507 12.8507H13.8598M5.79621 12.8507H5.80528M5.79621 16.8825H5.80528" stroke="var(--stroke-0, white)" stroke-width="2.01589" stroke-linecap="round" stroke-linejoin="round"/>
</g>
</svg>
