<svg xmlns="http://www.w3.org/2000/svg" width="521" height="194" viewBox="0 0 521 194" fill="none">
  <path d="M0 189.079V0H50.1993L97.5523 112.929H102.21L149.304 0H200.28V189.079H163.795V27.7143L168.452 28.2323L117.477 150.486H79.9567L28.7223 28.2323L33.6387 27.7143V189.079H0Z" fill="url(#paint0_linear_81_3234)"/>
  <path d="M276.381 189.079V27.1963H313.125V189.079H276.381ZM221.783 32.3765V0H367.723V32.3765H221.783Z" fill="url(#paint1_linear_81_3234)"/>
  <path d="M449.582 194C434.747 194 421.981 191.065 411.286 185.194C400.763 179.323 392.655 171.552 386.963 161.883C381.442 152.04 378.682 141.334 378.682 129.765H414.132C414.132 136.327 415.599 142.111 418.531 147.119C421.636 152.126 425.863 156.098 431.21 159.033C436.558 161.796 442.768 163.178 449.841 163.178C457.259 163.178 463.642 161.624 468.989 158.515C474.337 155.407 478.391 151.177 481.151 145.824C484.084 140.471 485.55 134.341 485.55 127.434C485.55 120.7 484.084 114.656 481.151 109.303C478.391 103.777 474.337 99.4606 468.989 96.3525C463.814 93.0717 457.518 91.4313 450.1 91.4313C443.89 91.4313 438.024 92.64 432.504 95.0574C426.984 97.4749 422.671 100.669 419.566 104.641H385.669L395.243 0H504.698V31.3405H411.286L424.224 21.239L418.014 86.51L409.216 83.9199C414.219 78.2216 420.343 73.4731 427.588 69.6742C434.833 65.8754 443.976 63.976 455.016 63.976C468.989 63.976 480.892 66.8251 490.725 72.5234C500.558 78.2216 508.062 85.8193 513.237 95.3164C518.412 104.641 521 114.829 521 125.88V129.247C521 140.471 518.24 151.004 512.72 160.846C507.199 170.689 499.092 178.718 488.396 184.935C477.873 190.978 464.935 194 449.582 194Z" fill="url(#paint2_linear_81_3234)"/>
  <defs>
    <linearGradient id="paint0_linear_81_3234" x1="253.736" y1="-62.0846" x2="253.736" y2="211.198" gradientUnits="userSpaceOnUse">
      <stop stop-color="#1B1C36"/>
      <stop offset="1" stop-color="#080930" stop-opacity="0"/>
    </linearGradient>
    <linearGradient id="paint1_linear_81_3234" x1="253.736" y1="-62.0846" x2="253.736" y2="211.198" gradientUnits="userSpaceOnUse">
      <stop stop-color="#1B1C36"/>
      <stop offset="1" stop-color="#080930" stop-opacity="0"/>
    </linearGradient>
    <linearGradient id="paint2_linear_81_3234" x1="253.736" y1="-62.0846" x2="253.736" y2="211.198" gradientUnits="userSpaceOnUse">
      <stop stop-color="#1B1C36"/>
      <stop offset="1" stop-color="#080930" stop-opacity="0"/>
    </linearGradient>
  </defs>
</svg>
